HIERARCHY
ROOT Hips
{
  OFFSET 5.84602e-005 68.8428 3.50346
  CHANNELS 6 Xposition Yposition Zposition Zrotation Xrotation Yrotation
  JOINT Spine
  {
    OFFSET 0 8.597 -4.6522
    CHANNELS 3 Zrotation Xrotation Yrotation
    JOINT Spine1
    {
      OFFSET 0 7.8454 0.4098
      CHANNELS 3 Zrotation Xrotation Yrotation
      JOINT Spine2
      {
        OFFSET 0 9.7078 -2.1609
        CHANNELS 3 Zrotation Xrotation Yrotation
        JOINT Neck
        {
          OFFSET 0 21.8761 -0.4549
          CHANNELS 3 Zrotation Xrotation Yrotation
          JOINT Head
          {
            OFFSET 0 12.3537 3.3602
            CHANNELS 3 Zrotation Xrotation Yrotation
            End Site
            {
              OFFSET 0.0001 18.9506 0.5657
            }
          }
        }
        JOINT LeftShoulder
        {
          OFFSET 2.2086 21.1115 7.2329
          CHANNELS 3 Zrotation Xrotation Yrotation
          JOINT LeftArm
          {
            OFFSET 13.1193 3.0282 -4.8998
            CHANNELS 3 Zrotation Xrotation Yrotation
            JOINT LeftForeArm
            {
              OFFSET 27.4081 -0.0973053 -0.2375
              CHANNELS 3 Zrotation Xrotation Yrotation
              JOINT LeftHand
              {
                OFFSET 22.8641 0.0662994 -0.1369
                CHANNELS 3 Zrotation Xrotation Yrotation
                JOINT LeftHandIndex1
                {
                  OFFSET 8.8614 0.775009 2.4612
                  CHANNELS 3 Zrotation Xrotation Yrotation
                  JOINT LeftHandIndex2
                  {
                    OFFSET 3.3146 -0.808304 0.5841
                    CHANNELS 3 Zrotation Xrotation Yrotation
                    JOINT LeftHandIndex3
                    {
                      OFFSET 2.2628 -0.552002 0.3989
                      CHANNELS 3 Zrotation Xrotation Yrotation
                      End Site
                      {
                        OFFSET 1.6102 -0.4807 0.2612
                      }
                    }
                  }
                }
                JOINT LeftHandMiddle1
                {
                  OFFSET 8.9937 0.895004 0.2143
                  CHANNELS 3 Zrotation Xrotation Yrotation
                  JOINT LeftHandMiddle2
                  {
                    OFFSET 4.0984 0.0113983 -0.0242
                    CHANNELS 3 Zrotation Xrotation Yrotation
                    JOINT LeftHandMiddle3
                    {
                      OFFSET 2.2716 0.00689697 -0.0138001
                      CHANNELS 3 Zrotation Xrotation Yrotation
                      End Site
                      {
                        OFFSET 2.0404 -0.1441 0.0027
                      }
                    }
                  }
                }
                JOINT LeftHandRing1
                {
                  OFFSET 8.5234 0.597198 -2.0164
                  CHANNELS 3 Zrotation Xrotation Yrotation
                  JOINT LeftHandRing2
                  {
                    OFFSET 3.7188 -0.188293 -0.2328
                    CHANNELS 3 Zrotation Xrotation Yrotation
                    JOINT LeftHandRing3
                    {
                      OFFSET 2.1191 -0.106598 -0.1332
                      CHANNELS 3 Zrotation Xrotation Yrotation
                      End Site
                      {
                        OFFSET 1.8737 -0.2304 -0.0886
                      }
                    }
                  }
                }
                JOINT LeftHandPinky1
                {
                  OFFSET 7.9094 -0.601089 -3.4825
                  CHANNELS 3 Zrotation Xrotation Yrotation
                  JOINT LeftHandPinky2
                  {
                    OFFSET 2.2874 -0.477005 -0.6314
                    CHANNELS 3 Zrotation Xrotation Yrotation
                    JOINT LeftHandPinky3
                    {
                      OFFSET 1.6774 -0.349396 -0.4633
                      CHANNELS 3 Zrotation Xrotation Yrotation
                      End Site
                      {
                        OFFSET 1.4888 -0.4091 -0.3416
                      }
                    }
                  }
                }
                JOINT LeftHandThumb1
                {
                  OFFSET 1.833 -1.3875 1.3896
                  CHANNELS 3 Zrotation Xrotation Yrotation
                  JOINT LeftHandThumb2
                  {
                    OFFSET 3.4129 -1.121 2.5732
                    CHANNELS 3 Zrotation Xrotation Yrotation
                    JOINT LeftHandThumb3
                    {
                      OFFSET 2.2474 -0.804199 1.6192
                      CHANNELS 3 Zrotation Xrotation Yrotation
                      End Site
                      {
                        OFFSET 1.6527 -0.5689 1.1317
                      }
                    }
                  }
                }
              }
            }
          }
        }
        JOINT RightShoulder
        {
          OFFSET -2.2086 21.1115 7.2329
          CHANNELS 3 Zrotation Xrotation Yrotation
          JOINT RightArm
          {
            OFFSET -13.1216 3.0287 -4.9007
            CHANNELS 3 Zrotation Xrotation Yrotation
            JOINT RightForeArm
            {
              OFFSET -27.4081 -0.0973053 -0.2375
              CHANNELS 3 Zrotation Xrotation Yrotation
              JOINT RightHand
              {
                OFFSET -22.8641 0.0664063 -0.1369
                CHANNELS 3 Zrotation Xrotation Yrotation
                JOINT RightHandIndex1
                {
                  OFFSET -8.8614 0.774994 2.4612
                  CHANNELS 3 Zrotation Xrotation Yrotation
                  JOINT RightHandIndex2
                  {
                    OFFSET -3.3146 -0.808304 0.5841
                    CHANNELS 3 Zrotation Xrotation Yrotation
                    JOINT RightHandIndex3
                    {
                      OFFSET -2.2628 -0.552002 0.3989
                      CHANNELS 3 Zrotation Xrotation Yrotation
                      End Site
                      {
                        OFFSET -1.6102 -0.4807 0.2612
                      }
                    }
                  }
                }
                JOINT RightHandMiddle1
                {
                  OFFSET -8.9937 0.894989 0.2143
                  CHANNELS 3 Zrotation Xrotation Yrotation
                  JOINT RightHandMiddle2
                  {
                    OFFSET -4.0984 0.0113983 -0.0242
                    CHANNELS 3 Zrotation Xrotation Yrotation
                    JOINT RightHandMiddle3
                    {
                      OFFSET -2.2716 0.00691223 -0.0138001
                      CHANNELS 3 Zrotation Xrotation Yrotation
                      End Site
                      {
                        OFFSET -2.0404 -0.1441 0.0027
                      }
                    }
                  }
                }
                JOINT RightHandRing1
                {
                  OFFSET -8.5234 0.597198 -2.0164
                  CHANNELS 3 Zrotation Xrotation Yrotation
                  JOINT RightHandRing2
                  {
                    OFFSET -3.7188 -0.188309 -0.2328
                    CHANNELS 3 Zrotation Xrotation Yrotation
                    JOINT RightHandRing3
                    {
                      OFFSET -2.1191 -0.106598 -0.1332
                      CHANNELS 3 Zrotation Xrotation Yrotation
                      End Site
                      {
                        OFFSET -1.8737 -0.2304 -0.0886
                      }
                    }
                  }
                }
                JOINT RightHandPinky1
                {
                  OFFSET -7.9094 -0.601105 -3.4825
                  CHANNELS 3 Zrotation Xrotation Yrotation
                  JOINT RightHandPinky2
                  {
                    OFFSET -2.2874 -0.477005 -0.6314
                    CHANNELS 3 Zrotation Xrotation Yrotation
                    JOINT RightHandPinky3
                    {
                      OFFSET -1.6774 -0.349396 -0.4633
                      CHANNELS 3 Zrotation Xrotation Yrotation
                      End Site
                      {
                        OFFSET -1.4888 -0.4091 -0.3416
                      }
                    }
                  }
                }
                JOINT RightHandThumb1
                {
                  OFFSET -1.833 -1.38751 1.3896
                  CHANNELS 3 Zrotation Xrotation Yrotation
                  JOINT RightHandThumb2
                  {
                    OFFSET -3.41299 -1.12099 2.5732
                    CHANNELS 3 Zrotation Xrotation Yrotation
                    JOINT RightHandThumb3
                    {
                      OFFSET -2.24741 -0.804108 1.6192
                      CHANNELS 3 Zrotation Xrotation Yrotation
                      End Site
                      {
                        OFFSET -1.6527 -0.5689 1.1317
                      }
                    }
                  }
                }
              }
            }
          }
        }
      }
    }
  }
  JOINT RightUpLeg
  {
    OFFSET -9.1966 3.8861 -0.7581
    CHANNELS 3 Zrotation Xrotation Yrotation
    JOINT RightLeg
    {
      OFFSET -0.7359 -41.0265 0
      CHANNELS 3 Zrotation Xrotation Yrotation
      JOINT RightFoot
      {
        OFFSET 0 -40.2855 0
        CHANNELS 3 Zrotation Xrotation Yrotation
        JOINT RightToeBase
        {
          OFFSET 0 -5.6122 11.7359
          CHANNELS 3 Zrotation Xrotation Yrotation
          End Site
          {
            OFFSET 0 0 7.8731
          }
        }
      }
    }
  }
  JOINT LeftUpLeg
  {
    OFFSET 9.1965 3.8864 -0.7581
    CHANNELS 3 Zrotation Xrotation Yrotation
    JOINT LeftLeg
    {
      OFFSET 0.7359 -41.0268 0
      CHANNELS 3 Zrotation Xrotation Yrotation
      JOINT LeftFoot
      {
        OFFSET 0 -40.2855 0
        CHANNELS 3 Zrotation Xrotation Yrotation
        JOINT LeftToeBase
        {
          OFFSET 0 -5.6122 11.7359
          CHANNELS 3 Zrotation Xrotation Yrotation
          End Site
          {
            OFFSET 0 0 7.8731
          }
        }
      }
    }
  }
}
MOTION
Frames:	4
Frame Time:	0.0333333
-14.3501 -0.159099 26.0283 89.988 71.994 39.9995 -6.28439 8.52865 -2.47856 -12.4006 17.2739 -4.05544 -12.4005 17.2739 -4.05545 -27.4373 -7.54381 4.03987 -0.860265 -8.48167 29.1494 -23.3827 15.1238 -13.3237 -69.442 -76.7463 -26.0689 -115.477 10.6977 -30.1084 14.8639 -50.2899 33.3208 8.12608e-007 -2.20633e-007 1.00186e-007 1.62522e-006 -4.41266e-007 2.00372e-007 8.12608e-007 -2.20633e-007 1.00186e-007 8.12608e-007 -2.20633e-007 1.00186e-007 -0.0146077 -8.95781e-005 -7.92963e-007 8.12596e-007 -2.20646e-007 1.00157e-007 8.12608e-007 -2.20633e-007 1.00186e-007 -0.0187827 -0.00117729 5.52622e-005 8.12593e-007 -2.20651e-007 1.00142e-007 8.12608e-007 -2.20633e-007 1.00186e-007 -0.0122257 -0.00323781 0.000672127 8.12599e-007 -2.20651e-007 1.0014e-007 8.12608e-007 -2.20633e-007 1.00186e-007 1.62522e-006 -4.41266e-007 2.00372e-007 8.12608e-007 -2.20633e-007 1.00186e-007 -1.32216 1.84811 7.84757 -0.539141 31.1068 16.2864 -16.374 -8.71273 15.945 -13.052 9.3526 21.8147 8.81025e-010 4.2577e-007 -2.39946e-008 -1.21193e-009 -1.49965e-009 -2.66106e-008 8.81028e-010 4.2577e-007 -2.39946e-008 8.81025e-010 4.2577e-007 -2.39946e-008 0.0149921 -9.1789e-005 2.80996e-007 8.83552e-010 4.25767e-007 -2.40503e-008 8.81025e-010 4.2577e-007 -2.39946e-008 0.0189961 -0.00119096 -5.95742e-005 8.83749e-010 4.25766e-007 -2.40652e-008 8.81025e-010 4.2577e-007 -2.39946e-008 0.0122862 -0.00325151 -0.000678591 8.79903e-010 4.25767e-007 -2.40404e-008 8.81025e-010 4.2577e-007 -2.39946e-008 -1.21193e-009 -1.49965e-009 -2.66106e-008 8.81028e-010 4.2577e-007 -2.39946e-008 -25.2326 -31.1702 -40.4777 -2.87761 65.6379 0.388439 2.50462 11.9041 6.51965 1.63997e-015 -3.18055e-015 -3.40419e-015 72.8414 -19.7862 94.9654 83.9204 79.1521 -80.0287 27.5178 24.8852 -38.3945 -2.19777e-006 1.3076e-005 3.1769e-006 
-14.3501 -0.159099 26.0283 89.988 71.994 39.9995 -6.27966 8.50203 -2.48781 -12.3894 17.2216 -4.07768 -12.3893 17.2216 -4.07766 -27.426 -7.37866 4.12625 -0.859884 -8.31886 29.1519 -23.3021 15.0645 -13.3053 -69.4375 -76.7431 -26.0428 -115.587 10.759 -30.0208 14.9095 -50.3231 33.2043 2.06153e-007 2.23598e-007 -1.77187e-006 -7.32785e-009 -4.86249e-008 2.94654e-007 2.06153e-007 2.23598e-007 -1.77187e-006 2.06153e-007 2.23598e-007 -1.77187e-006 -0.0146177 -8.79557e-005 -3.94893e-006 1.97857e-007 1.75155e-007 -1.47719e-006 2.06153e-007 2.23598e-007 -1.77187e-006 -0.0187557 -0.0011748 5.56666e-005 2.07231e-007 2.23956e-007 -1.77184e-006 2.06153e-007 2.23598e-007 -1.77187e-006 -0.0122696 -0.00324869 0.00067818 2.06821e-007 2.23976e-007 -1.77189e-006 2.06153e-007 2.23598e-007 -1.77187e-006 -7.32785e-009 -4.86249e-008 2.94654e-007 2.06153e-007 2.23598e-007 -1.77187e-006 -1.33915 1.83179 7.98197 -0.539142 31.1068 16.2864 -16.374 -8.71273 15.945 -13.052 9.3526 21.8147 -1.48467e-015 -7.95139e-016 -0 8.58469e-010 4.25782e-007 -2.35099e-008 -1.23239e-009 -1.46936e-009 -2.66114e-008 -1.48467e-015 -7.95139e-016 -0 0.0149833 -9.02936e-005 3.31426e-007 -1.23238e-009 -1.47283e-009 -2.66112e-008 -1.48467e-015 -7.95139e-016 -0 0.018987 -0.00118987 -5.97805e-005 -1.23264e-009 -1.47378e-009 -2.66111e-008 -1.48467e-015 -7.95139e-016 -0 0.0122803 -0.00325039 -0.000676255 -1.2331e-009 -1.47223e-009 -2.66112e-008 -1.48467e-015 -7.95139e-016 -0 8.58469e-010 4.25782e-007 -2.35099e-008 -1.23239e-009 -1.46936e-009 -2.66114e-008 -25.1719 -31.2115 -40.3423 -2.87771 65.6386 0.390864 2.60077 11.906 6.41142 -5.2181e-016 6.36111e-015 2.72087e-015 72.8413 -19.7861 94.9654 83.9205 79.1521 -80.0289 27.5178 24.8851 -38.3945 -9.46102e-007 4.87294e-006 2.68638e-006 
-14.3501 -0.159099 26.0283 89.988 71.994 39.9995 -6.27528 8.47722 -2.49642 -12.3789 17.1729 -4.09835 -12.3789 17.1729 -4.09836 -27.4161 -7.22489 4.20669 -0.859528 -8.16722 29.1541 -23.2271 15.0093 -13.288 -69.4328 -76.7399 -26.0167 -115.689 10.8159 -29.9391 14.9518 -50.3542 33.0958 5.56597e-015 4.77083e-015 3.18055e-015 -3.53113e-031 3.18055e-015 6.36111e-015 1.59028e-015 1.59028e-015 6.36111e-015 5.56597e-015 4.77083e-015 3.18055e-015 -0.0146252 -8.81587e-005 9.7591e-007 -7.95139e-016 -3.18055e-015 -3.18055e-015 5.56597e-015 4.77083e-015 3.18055e-015 -0.0187489 -0.0011758 5.93049e-005 -7.95139e-016 -1.59028e-015 -9.54166e-015 5.56597e-015 4.77083e-015 3.18055e-015 -0.0122738 -0.00324986 0.000672887 -5.29669e-031 4.77083e-015 6.36111e-015 5.56597e-015 4.77083e-015 3.18055e-015 -3.53113e-031 3.18055e-015 6.36111e-015 1.59028e-015 1.59028e-015 6.36111e-015 -1.35494 1.81656 8.10713 -0.539126 31.1068 16.2864 -16.3741 -8.71273 15.945 -13.052 9.3526 21.8147 2.088e-009 4.27233e-007 3.55401e-009 -3.14949e-015 2.38542e-015 -9.93923e-017 2.088e-009 4.27233e-007 3.55401e-009 2.088e-009 4.27233e-007 3.55401e-009 0.0149912 -9.15487e-005 2.28122e-007 2.09061e-009 4.27234e-007 3.49812e-009 2.088e-009 4.27233e-007 3.55401e-009 0.0189865 -0.00119043 -5.93537e-005 2.09112e-009 4.27234e-007 3.48319e-009 2.088e-009 4.27233e-007 3.55401e-009 0.0122735 -0.00324844 -0.000676987 2.08771e-009 4.27233e-007 3.50808e-009 2.088e-009 4.27233e-007 3.55401e-009 -3.14949e-015 2.38542e-015 -9.93923e-017 2.088e-009 4.27233e-007 3.55401e-009 -25.1151 -31.2498 -40.2162 -2.87779 65.6392 0.393084 2.69031 11.9078 6.31064 4.41045e-006 -9.00172e-007 4.99125e-006 72.8414 -19.7862 94.9654 83.9204 79.1521 -80.0287 27.5178 24.8852 -38.3945 -1.25124e-007 6.30559e-007 3.07854e-007 
-14.3501 -0.159099 26.0283 89.988 71.994 39.9995 -6.27084 8.45243 -2.50498 -12.3685 17.1243 -4.11904 -12.3685 17.1243 -4.119 -27.406 -7.07103 4.28709 -0.859189 -8.01557 29.1564 -23.1521 14.954 -13.2707 -69.4282 -76.7367 -25.9905 -115.792 10.8726 -29.8573 14.9942 -50.3853 32.9873 -1.84577e-006 -3.66666e-007 -3.0648e-007 -8.11641e-007 2.22487e-007 -1.03193e-007 2.38542e-015 -3.18055e-015 -0 -1.84577e-006 -3.66666e-007 -3.0648e-007 -0.0145996 -8.89126e-005 7.49771e-007 7.06225e-031 -6.36111e-015 6.36111e-015 -1.84577e-006 -3.66666e-007 -3.0648e-007 -0.0187493 -0.00117527 5.86585e-005 -1.27591e-008 -1.69918e-008 3.19436e-007 -1.84577e-006 -3.66666e-007 -3.0648e-007 -0.0122588 -0.00324499 0.00067124 -7.95139e-016 -3.18055e-015 -3.18055e-015 -1.84577e-006 -3.66666e-007 -3.0648e-007 -8.11641e-007 2.22487e-007 -1.03193e-007 2.38542e-015 -3.18055e-015 -0 -1.37069 1.80128 8.23232 -0.539126 31.1068 16.2864 -16.374 -8.71273 15.945 -13.052 9.3526 21.8147 2.96485e-007 -2.25911e-007 -1.61311e-008 5.5367e-007 -2.02227e-007 -1.52202e-008 2.97755e-007 -2.24498e-007 1.04815e-008 2.96485e-007 -2.25911e-007 -1.61311e-008 0.0150153 -9.07544e-005 2.64501e-007 6.35148e-010 7.08154e-010 1.33062e-008 2.96485e-007 -2.25911e-007 -1.61311e-008 0.0189873 -0.0011902 -6.00519e-005 6.3529e-010 7.0864e-010 1.33062e-008 2.96485e-007 -2.25911e-007 -1.61311e-008 0.0122951 -0.0032554 -0.00067525 6.35533e-010 7.07864e-010 1.33062e-008 2.96485e-007 -2.25911e-007 -1.61311e-008 5.5367e-007 -2.02227e-007 -1.52202e-008 2.97755e-007 -2.24498e-007 1.04815e-008 -25.0583 -31.2881 -40.0899 -2.87791 65.6398 0.395317 2.77985 11.9094 6.20986 1.06847e-015 6.36111e-015 1.56543e-015 72.8413 -19.7862 94.9654 83.9203 79.1521 -80.0286 27.5178 24.8852 -38.3945 -2.50249e-007 1.26112e-006 6.15709e-007 
